# xmcd CD database file
#
# Track frame offsets:
#	150
#	18862
#	39312
#
# Disc length: 772 seconds
#
# Revision: 0
# Processed by: cddbd v1.5.1PL0 Copyright (c) Steve Scherf et al.
# Submitted via: CDex 1.51
#
DISCID=15030203
DTITLE=古内 東子 - かわいくなりたい
DYEAR=1996
DGENRE=JPop
TTITLE0=かわいくなりたい
TTITLE1=いつかきっと
TTITLE2=かわいくなりたい"ORIGINAL KARAOKE"
EXTD=YEAR: 1996
EXTT0=
EXTT1=
EXTT2=
PLAYORDER=
